<svg width="800" height="562" viewBox="0 0 800 562" fill="none" xmlns="http://www.w3.org/2000/svg">
<g clip-path="url(#clip0_211_17)">
<path d="M64.9652 562.464C0.939744 562.464 63.926 497.499 63.926 497.499L227.161 318.105C243.037 300.664 273.674 274.181 291.587 288.79C309.497 303.397 333.417 332.997 350.076 349.698L383.833 383.484C401.929 399.502 415.853 383.484 415.853 383.484L450.393 349.457C467.193 332.898 491.254 304.009 509.193 290.57C527.132 277.131 557.644 302.687 573.475 320.171L735.755 499.481C799.809 562.467 736.794 562.467 736.794 562.467H64.9652V562.464ZM92.6732 414.875C76.797 432.33 53.6045 462.684 37.93 480.312C20.2319 500.203 0 515.307 0 480.469L0.769593 130.492C0.827182 106.899 0.172766 61.9094 16.2897 69.9823C22.2842 72.9873 30.4853 79.2357 41.6182 90.3843L173.716 198.462C191.969 213.399 217.695 231.678 226.111 243.853C231.422 251.528 233.857 260.454 226.169 268.171L92.6732 414.875ZM448.728 290.539C430.491 305.501 410.67 326.731 400.547 326.759C390.425 326.772 370.235 306.03 351.911 291.164L64.4835 58.0091C46.1599 43.1591 14.5961 13.247 30.2838 5.2291C41.6156 -0.566406 61.4209 -0.466931 61.4209 -0.466931H736.854C797.662 -0.466931 766.74 29.5603 766.74 29.5603L448.728 290.539ZM762.028 480.312C746.325 462.7 723.117 432.33 707.256 414.875L573.836 268.155C566.106 260.438 568.525 251.512 573.836 243.837C582.25 231.665 607.992 213.396 626.26 198.462L725.326 117.422C743.579 102.486 767.583 78.0551 783.687 69.9823C799.791 61.9094 799.092 106.915 799.149 130.492L800.003 480.469C800.013 515.307 779.752 500.203 762.028 480.312Z" fill="white"/>
</g>
<defs>
<clipPath id="clip0_211_17">
<rect width="800" height="562" fill="white"/>
</clipPath>
</defs>
</svg>
