<svg width="316" height="222" viewBox="0 0 316 222" fill="none" xmlns="http://www.w3.org/2000/svg">
<rect x="4" y="182" width="216" height="36" rx="18" stroke="white" stroke-width="8"/>
<circle cx="22" cy="200" r="9" fill="white"/>
<circle cx="202" cy="200" r="9" fill="white"/>
<rect x="36" y="191" width="152" height="18" rx="6" fill="white"/>
<path d="M146 72H171.187C173.343 72 175.334 73.1571 176.401 75.0308L195.214 108.067C195.729 108.971 196 109.995 196 111.036V140C196 143.314 193.314 146 190 146H146C142.686 146 140 143.314 140 140V78C140 74.6863 142.686 72 146 72Z" stroke="white" stroke-width="8"/>
<path d="M0 148C0 143.582 3.58172 140 8 140H200V164C200 168.418 196.418 172 192 172H8C3.58173 172 0 168.418 0 164V148Z" fill="white"/>
<path d="M0 119C0 114.582 3.58172 111 8 111H137V150C137 154.418 133.418 158 129 158H8C3.58172 158 0 154.418 0 150V119Z" fill="white"/>
<path d="M40 107C40 102.582 43.5817 99 48 99H89C93.4183 99 97 102.582 97 107V132C97 136.418 93.4183 140 89 140H48C43.5817 140 40 136.418 40 132V107Z" fill="white"/>
<path d="M225.171 10.3423C225.702 9.48165 226.549 8.86268 227.531 8.61731V8.61731C230.417 7.89564 233.009 10.5574 232.21 13.4237L212.858 82.8868C211.054 89.3625 202.552 90.8606 198.643 85.3915L191.094 74.8296C189.22 72.2068 189.103 68.7153 190.797 65.9728L225.171 10.3423Z" fill="white"/>
<path d="M217.873 7.17857C219.953 3.28039 224.799 1.80625 228.697 3.88599L308.695 46.566C312.536 48.6154 313.989 53.3909 311.94 57.2323V57.2323C309.89 61.0737 305.115 62.5264 301.273 60.477L214.217 14.0313L217.873 7.17857Z" fill="white"/>
<path d="M306.268 45.9887C310.65 46.5512 313.747 50.5597 313.185 54.942L302.589 137.5C302.035 141.818 298.084 144.87 293.766 144.315V144.315C289.447 143.761 286.396 139.811 286.95 135.493L298.564 45L306.268 45.9887Z" fill="white"/>
<path d="M184.211 63.7316C183.279 63.1385 183.005 61.9023 183.598 60.9704L218.365 6.35117C219.178 5.07424 220.872 4.69799 222.149 5.51079V5.51079C223.425 6.3236 223.802 8.01766 222.989 9.29459L187.148 65.6011L184.211 63.7316Z" fill="white"/>
<rect x="192.964" y="77.5253" width="19.1846" height="5.28715" rx="2.64357" transform="rotate(-124.24 192.964 77.5253)" fill="white"/>
<path d="M238.357 129.849C237.268 138.266 239.602 146.775 244.846 153.504C250.09 160.234 257.814 164.632 266.319 165.732C274.823 166.832 283.412 164.544 290.196 159.37C296.979 154.196 301.402 146.561 302.49 138.145L270.424 133.997L238.357 129.849Z" fill="white"/>
<path d="M240.635 115.023L243.629 120.014L246.655 132.978L238.5 132.5L240.635 115.023Z" fill="white"/>
</svg>
