<svg width="416" height="414" viewBox="0 0 416 414" fill="none" xmlns="http://www.w3.org/2000/svg">
<path d="M192.4 4.00001C106.667 11.0667 33.0667 73.6 12.1333 157.067C0.400007 203.733 5.33334 252.267 26 295.467C53.4667 352.533 105.733 393.067 169.867 406.933C180.933 409.333 187.733 409.867 208.667 409.867C234.533 410 242.933 409.067 262.667 403.733C342.8 382.267 402.4 313.2 412.133 230.533C415.333 202.267 411.867 168.533 402.667 141.333C398.533 129.067 386.667 104.933 379.2 94C349.6 49.8667 302.8 18.2667 251.2 7.46667C242.267 5.60001 212.933 2.53334 207.333 2.93334C205.867 2.93334 199.2 3.46667 192.4 4.00001ZM208 11.8667C208 15.6 207.867 15.6 197.867 16.4C188.4 17.2 187.467 17.0667 183.2 13.8667C180.667 11.8667 178.8 10 179.2 9.73334C179.867 9.06667 205.733 7.06667 207.067 7.73334C207.6 8.00001 208 9.86667 208 11.8667ZM233.067 8.80001C236.8 9.20001 240 9.86667 240 10.4C240 10.9333 237.867 12.6667 235.333 14.4C231.2 17.0667 229.6 17.2 221.333 16.5333L212 15.6V11.3333V7.06667L219.067 7.60001C222.8 7.86667 229.2 8.40001 233.067 8.80001ZM178.4 14.6667C180.667 16.1333 182.667 17.7333 182.667 18.2667C182.667 18.9333 179.067 20.6667 174.8 22.4C167.2 25.3333 166.8 25.3333 157.867 23.2C142.133 19.4667 142.133 19.3333 154 15.6C166.933 11.3333 172.667 11.2 178.4 14.6667ZM267.333 16.1333C276.133 18.9333 276.4 19.2 272.667 20.1333C270.533 20.6667 265.067 22.1333 260.533 23.2C252.8 25.3333 252.267 25.2 245.067 22.4C241.067 20.6667 237.6 18.6667 237.6 18C237.467 17.2 239.333 15.6 241.733 14.2667C246.933 11.4667 254.133 12 267.333 16.1333ZM207.467 20.4C207.867 21.4667 208 26.9333 207.733 32.5333L207.333 42.8L200 32.4C196 26.6667 192.533 21.6 192.267 21.0667C192 20.5333 194.667 19.8667 198.267 19.6C201.733 19.3333 205.2 19.0667 205.733 18.9333C206.267 18.8 207.067 19.4667 207.467 20.4ZM222.533 20C227.867 20 227.867 20.2667 218.8 33.2L212 43.2V30.8C212 18.5333 212 18.4 215.067 19.2C216.667 19.6 220 20 222.533 20ZM245.333 26.1333C246.533 26.5333 242.4 29.4667 234.667 33.4667C227.733 37.0667 220.933 41.0667 219.733 42.2667C215.2 46.4 216 43.0667 221.467 35.2C224.533 30.9333 228.133 26 229.6 24.4C232.4 21.3333 232.4 21.3333 245.333 26.1333ZM149.733 24.8C156.133 26 161.333 27.4667 161.333 28C161.333 28.5333 159.867 30 158 31.2C155.6 32.8 151.6 33.3333 143.067 33.3333C136.667 33.3333 127.467 34 122.8 34.6667C118.133 35.4667 114.133 35.8667 113.867 35.6C113.067 34.8 133.867 22.6667 136 22.6667C137.067 22.6667 143.2 23.6 149.733 24.8ZM190.933 26.2667C194.4 30.1333 202.667 42 202.667 43.2C202.667 43.4667 197.2 40.5333 190.4 36.5333C183.6 32.5333 177.333 29.3333 176.533 29.3333C172.8 29.3333 173.467 26.5333 177.6 24.6667C184.133 21.8667 187.067 22.2667 190.933 26.2667ZM291.867 26.6667C296 28.9333 300.8 32 302.667 33.4667L306 36.2667L302 35.3333C299.867 34.9333 290.267 34.1333 280.667 33.7333C266.933 33.2 262.667 32.5333 260.267 30.5333C256.533 27.6 257.467 26.9333 269.067 24.6667C282 22.1333 283.467 22.2667 291.867 26.6667ZM177.6 33.8667C192.133 40.5333 194.933 43.2 184 40C179.333 38.5333 172.267 36.8 168.4 36C164.533 35.2 161.333 34 161.333 33.4667C161.333 32.6667 164.933 30.4 167.6 29.4667C167.733 29.3333 172.267 31.3333 177.6 33.8667ZM256.133 31.8667L259.2 34.2667L248.667 36.6667C242.933 37.8667 235.867 39.7333 233.067 40.8C224 44 227.733 40.5333 239.6 34.9333C246 31.8667 251.733 29.3333 252.133 29.3333C252.667 29.3333 254.4 30.4 256.133 31.8667ZM104 38.6667C100.8 40.6667 99.2 40.1333 102.133 38.1333C103.467 37.0667 104.933 36.5333 105.333 36.8C105.6 37.2 105.067 38 104 38.6667ZM318.133 39.7333C317.6 40.1333 316.267 39.4667 314.933 38.1333C312.8 35.7333 312.8 35.7333 315.733 37.3333C317.467 38.1333 318.533 39.2 318.133 39.7333ZM147.333 42C144.4 45.6 142.533 46.6667 137.6 47.3333C127.6 48.8 107.867 54.1333 99.4667 57.8667C95.0667 59.8667 91.3333 61.0667 90.9333 60.8C90.2667 60 98.6667 48.2667 102.533 44.8C106.8 40.9333 123.067 37.6 137.733 37.4667L150.8 37.3333L147.333 42ZM176 41.6C189.733 44.9333 194.267 47.2 184.8 46.1333C181.2 45.7333 171.6 45.3333 163.6 45.3333H148.8L152.667 41.3333C157.067 36.8 156.133 36.8 176 41.6ZM266.667 40.6667C268.4 42.5333 269.6 44.2667 269.2 44.5333C268.533 45.0667 229.333 46.4 229.333 45.8667C229.333 44.9333 256.8 37.8667 262.133 37.4667C262.933 37.3333 264.933 38.8 266.667 40.6667ZM307.467 40.5333C314.267 42.6667 324 51.2 328 58.6667C329.467 61.4667 329.467 61.6 327.2 60.6667C315.2 55.7333 298.533 50.5333 288 48.6667C277.6 46.6667 274.8 45.6 272.4 42.8C270.8 40.9333 269.467 38.8 269.333 38.1333C269.333 36.2667 299.867 38.1333 307.467 40.5333ZM91.6 52.2667C89.8667 54.6667 87.3333 58.5333 86.2667 60.8C84.9333 63.3333 80.9333 66.8 75.3333 70C70.5333 72.8 62.9333 78 58.6667 81.6C54.2667 85.0667 50.2667 88 49.8667 88C48.1333 88 58.2667 75.6 68.4 65.6C77.7333 56.2667 92.8 45.7333 94.4 47.3333C94.6667 47.6 93.4667 49.8667 91.6 52.2667ZM332.933 50.8C336.933 53.0667 343.733 58.2667 348.133 62.2667C356.133 69.7333 370.133 86.4 369.067 87.3333C368.8 87.6 365.867 85.7333 362.667 83.0667C359.333 80.4 352.133 75.3333 346.667 71.8667C341.2 68.2667 336.267 64.9333 335.6 64.4C333.6 62.4 324.133 46.6667 324.933 46.6667C325.333 46.6667 328.933 48.5333 332.933 50.8ZM186.133 50.5333C185.733 51.0667 181.067 52 175.733 52.5333C167.333 53.3333 153.467 56 146.4 58.1333C143.733 58.9333 143.467 57.6 145.333 52.8L146.667 49.3333H166.667C177.733 49.3333 186.533 49.8667 186.133 50.5333ZM273.067 50.9333C274 51.8667 274.667 53.8667 274.667 55.3333V58.2667L263.733 55.8667C257.6 54.5333 248.667 53.0667 243.6 52.5333C228 50.9333 232.4 49.3333 252.267 49.3333C265.467 49.3333 272 49.8667 273.067 50.9333ZM140.8 54.9333C140.4 57.2 139.867 59.2 139.6 59.3333C139.467 59.4667 133.333 61.6 126 64.1333C118.667 66.6667 105.867 72.1333 97.6 76.2667L82.5333 83.8667L83.3333 79.6C84.9333 71.8667 86.8 66.9333 88.4 66.2667C106.267 58.9333 113.067 56.5333 123.2 53.8667C129.867 52.2667 136.8 50.8 138.533 50.6667C141.333 50.6667 141.6 51.0667 140.8 54.9333ZM293.333 53.2C305.2 55.8667 318.533 60.5333 327.467 65.0667C331.6 67.2 333.2 68.9333 334.4 73.0667C337.733 84.1333 337.6 84.1333 319.467 75.2C310.4 70.8 297.867 65.4667 291.467 63.3333C285.067 61.3333 279.733 59.2 279.467 58.8C279.2 58.4 278.667 56.4 278.133 54.2667C277.067 49.8667 277.733 49.7333 293.333 53.2ZM187.867 55.2C187.6 55.4667 181.333 58 174 60.6667C166.667 63.4667 157.333 67.3333 153.2 69.4667C149.067 71.4667 145.333 72.8 144.8 72.4C144.4 71.8667 144 69.3333 144 66.6667V61.7333L155.067 59.4667C173.467 55.7333 189.467 53.6 187.867 55.2ZM260.667 58.8C268 60.2667 274.533 62 275.2 62.6667C275.867 63.3333 276 65.8667 275.467 68.5333L274.533 73.2L265.6 69.0667C260.667 66.8 250.667 62.6667 243.333 59.7333L230 54.5333L238.667 55.3333C243.467 55.7333 253.333 57.3333 260.667 58.8ZM179.2 67.4667C172 72.2667 163.333 78.5333 159.867 81.4667L153.467 86.8L149.867 82C147.867 79.3333 146.533 77.0667 146.8 76.8C150 73.8667 186.4 58.8 190.533 58.6667C191.467 58.6667 186.4 62.6667 179.2 67.4667ZM240.267 62.5333C253.333 67.2 272 75.6 272 76.8C272 77.3333 270.8 79.7333 269.2 82.2667C267.333 85.3333 265.867 86.4 264.8 85.4667C257.333 79.4667 238.933 66.1333 234.133 63.3333C228.667 60.1333 226.933 58.6667 228.533 58.6667C228.933 58.6667 234.133 60.4 240.267 62.5333ZM202.667 61.7333C202.667 62 200.4 67.6 197.6 74.1333C194.8 80.6667 191.067 90.1333 189.333 95.0667C185.733 105.2 185.733 105.2 174.133 100.267L169.067 98L174.8 90.6667C187.2 74.6667 202.667 58.8 202.667 61.7333ZM208 84V106.667H201.733C198.133 106.667 194 106.267 192.4 105.867C189.6 105.067 189.6 105.067 192 98.2667C194.267 91.6 200.133 76.8 204.533 66.2667C205.733 63.6 206.933 61.3333 207.333 61.3333C207.733 61.3333 208 71.4667 208 84ZM224 89.0667C227.2 97.3333 229.333 104.4 228.8 104.933C228.4 105.467 224.4 106.133 220 106.4L212 106.933V83.8667V60.6667L215.2 67.3333C216.933 71.0667 220.8 80.8 224 89.0667ZM228.267 71.7333C233.733 77.4667 240.8 85.6 244 89.8667C250.4 98.4 250.533 98.2667 240.267 102.133C236.933 103.467 234.133 103.867 233.467 103.2C232.933 102.533 231.067 98.1333 229.333 93.3333C227.733 88.5333 224 79.4667 221.333 72.9333C218.533 66.5333 216.8 61.3333 217.333 61.3333C217.867 61.3333 222.8 66 228.267 71.7333ZM186.533 71.6C181.733 76.6667 175.2 84.1333 172.133 88.2667C168.933 92.5333 166 96 165.467 96C165.067 96 162.933 94.5333 160.667 92.6667L156.667 89.3333L162 84.5333C168.267 78.9333 192 62.6667 193.867 62.6667C194.533 62.6667 191.2 66.6667 186.533 71.6ZM237.067 69.6C249.067 77.6 262.667 88 262.667 89.2C262.667 90.2667 253.333 96.5333 252.933 95.8667C247.867 88.9333 241.733 81.3333 234.267 72.9333C229.2 67.3333 225.467 62.6667 226 62.6667C226.4 62.6667 231.467 65.7333 237.067 69.6ZM140.667 69.4667C141.2 72.4 141.333 75.0667 141.067 75.2C140.933 75.4667 135.6 78.6667 129.333 82.4C119.333 88.4 105.2 98.4 92.4 108.8L88 112.4L85.8667 107.333C84.8 104.533 83.7333 99.0667 83.6 95.0667L83.3333 87.8667L95.4667 81.2C107.6 74.6667 133.333 64.1333 137.6 64C139.067 64 140 65.6 140.667 69.4667ZM294.267 68.1333C306.4 72.4 327.2 82.4 333.733 86.9333C336.933 89.2 337.333 90.1333 336.533 94.4C335.6 100.267 332 112 331.2 112C330.933 112 326.267 108.4 320.933 104.133C312 96.8 290.533 82.1333 281.733 77.2C278.267 75.3333 278 74.5333 278.4 69.6C278.8 66.1333 279.6 64 280.667 64C281.6 64 287.733 65.8667 294.267 68.1333ZM79.8667 79.4667C78.6667 86.4 77.8667 87.8667 74.2667 90C67.7333 93.8667 53.3333 106.267 44.4 115.867C39.7333 120.8 36.1333 123.733 36 122.667C35.8667 116.533 41.3333 102.133 45.4667 97.7333C53.3333 89.6 79.6 69.8667 80.9333 71.0667C81.0667 71.3333 80.6667 75.0667 79.8667 79.4667ZM348 76.6667C360.267 84.8 377.067 100.667 379.333 106.267C380.4 108.8 381.733 113.867 382.133 117.6L383.067 124.4L373.2 114C367.733 108.267 358.133 99.7333 351.867 95.0667C341.067 87.0667 340.267 86.1333 339.6 80.9333C339.333 77.8667 338.533 74.2667 338 72.9333C336.533 69.4667 338.133 70.1333 348 76.6667ZM146.933 83.6L150.267 88.5333L134.133 104.667C125.2 113.6 115.6 123.867 112.667 127.733C109.733 131.467 106.4 134.4 105.333 134.267C103.067 133.867 90.6667 118.933 90.6667 116.533C90.6667 114 111.333 98 127.733 87.7333C135.6 82.6667 142.4 78.6667 142.8 78.6667C143.333 78.6667 145.067 80.9333 146.933 83.6ZM300.933 93.4667C308.667 98.6667 321.867 108.933 328.533 114.8C330 116.133 324.533 124.4 317.867 130.8L313.067 135.333L307.6 128.667C304.667 124.933 294.8 114.533 285.733 105.333C276.667 96.2667 269.333 88.5333 269.333 88.2667C269.333 88 270.933 85.7333 272.8 83.2L276.4 78.6667L283.867 82.8C288 85.2 295.6 90 300.933 93.4667ZM79.3333 95.6C79.7333 97.7333 81.2 102.933 82.5333 107.333L85.2 115.2L73.6 127.333C67.2 133.867 58.1333 144.533 53.4667 150.933C48.8 157.467 44.5333 162.667 44 162.667C42.5333 162.667 37.2 145.733 36.4 138.4C35.7333 132.533 36 131.6 41.0667 125.067C44 121.2 49.0667 115.467 52.2667 112.4C58.9333 105.867 76.2667 92 77.6 92C78.1333 92 78.9333 93.6 79.3333 95.6ZM158.667 95.4667C163.733 98.8 164 99.2 162.133 101.867C156.933 109.2 142.4 133.733 138.133 142.267C135.467 147.6 132.533 152 131.6 152C129.333 152 114.8 143.333 111.467 140C108.933 137.467 108.933 137.333 115.333 129.733C122.533 121.2 151.333 92 152.533 92C153.067 92 155.733 93.6 158.667 95.4667ZM286.133 110.933C296.4 121.467 306.133 131.867 307.733 134.267L310.667 138.4L301.733 144.4C285.733 154.8 288 155.467 278.667 137.733C274.267 129.2 267.2 117.067 263.2 110.933L255.733 99.4667L260.133 95.7333C262.667 93.7333 265.333 92 266.133 92C266.933 92 276 100.533 286.133 110.933ZM352.267 99.8667C362.4 107.867 378 123.467 381.733 129.333C383.6 132.267 383.733 134.133 382.667 141.067C381.2 150.133 377.067 161.733 375.2 162.133C374.533 162.4 370.133 157.2 365.467 150.667C360.8 144.133 351.867 133.333 345.733 126.8L334.533 114.8L337.333 106.533C338.8 102 340 96.8 340 95.0667C340 93.4667 340.533 92 341.2 92C341.867 92 346.933 95.4667 352.267 99.8667ZM177.067 104.8C180.8 106.133 184 107.733 184 108.533C184 109.333 181.733 117.467 178.933 126.667C176.133 135.867 172.667 147.867 171.333 153.333C170.133 158.8 168.533 163.867 168 164.4C166.933 165.6 151.6 161.467 141.867 157.333L135.867 154.667L143.2 140.4C153.067 121.2 166.267 100.933 168.4 101.867C169.2 102.133 173.2 103.6 177.067 104.8ZM259.867 112.267C267.467 123.867 282.667 151.867 282.667 154.267C282.667 155.467 255.6 165.333 252.267 165.333C251.6 165.333 249.733 160.267 248.267 154.267C246.667 148.133 243.2 136 240.533 127.2C237.867 118.533 235.6 110.533 235.467 109.6C235.333 108.133 247.867 102 252 101.467C252.4 101.333 256 106.267 259.867 112.267ZM205.067 110.667H208L207.733 140.267L207.333 169.867L198.667 169.467C189.867 169.2 173.2 166.933 172.267 166C171.467 165.2 176.4 147.067 182.8 126.133L188.133 108.933L195.067 109.867C198.933 110.267 203.333 110.667 205.067 110.667ZM232 110C232 110.267 234.4 118.533 237.333 128.267C240.133 138 243.733 150.4 245.067 155.733L247.733 165.467L244.533 166.667C242.8 167.333 234.8 168.4 226.667 168.933L212 170V140.4V110.8L217.733 110.267C227.6 109.467 232 109.333 232 110ZM32.8 122C31.4667 130.533 27.7333 138.4 17.4667 154.667C15.4667 158 18.1333 146.933 22 136.933C25.6 127.2 33.2 111.467 33.8667 112.133C34.1333 112.4 33.6 116.8 32.8 122ZM398.667 141.2C403.333 154.933 403.733 158.933 399.867 151.333C398.267 148.4 394.8 142.4 392 138C387.867 131.333 386.8 128.4 386.133 120.667L385.333 111.333L390 120.4C392.667 125.333 396.533 134.8 398.667 141.2ZM96.5333 130.933C101.2 136.667 102.8 139.467 101.867 140.667C93.8667 152 79.2 174.8 74.8 182.933C71.7333 188.667 68.6667 193.333 68 193.333C66.5333 193.333 53.7333 179.2 49.7333 173.067L46.4 168.133L49.4667 163.067C54.6667 154.4 68.6667 137.067 78.1333 127.467C86.1333 119.333 87.3333 118.533 88.5333 120.667C89.3333 122 92.9333 126.533 96.5333 130.933ZM349.867 136.8C355.2 142.8 362.533 152.133 366.4 157.6L373.2 167.6L368.8 174.133C364.267 180.667 352.533 193.333 350.933 193.333C350.4 193.333 347.867 189.333 345.333 184.4C342.8 179.467 335.067 167.067 328.267 156.8L315.867 138.133L321.067 132.8C323.867 129.733 327.6 125.333 329.333 122.933L332.267 118.533L336.267 122.267C338.533 124.267 344.667 130.933 349.867 136.8ZM33.3333 141.733C33.3333 143.333 34.9333 148.8 36.8 154C38.5333 159.067 40.4 164.4 40.8 165.6C41.3333 166.933 39.0667 173.2 35.6 180.267C32.2667 187.067 28 197.067 26.2667 202.533C23.2 211.333 22.8 212 21.4667 209.467C18.8 204.533 14.6667 186.533 14.6667 179.867C14.6667 172.533 19.0667 159.867 26.2667 146.533C31.0667 137.6 33.3333 136.133 33.3333 141.733ZM396.667 154C405.467 172.133 406.267 176 403.467 190.133C402.267 196.667 400.133 204.267 398.8 207.333L396.4 212.667L392.8 201.733C390.8 195.733 386.533 185.6 383.2 179.2L377.2 167.467L380.133 161.467C381.733 158.133 384 151.2 385.067 146.267C387.6 135.467 387.733 135.6 396.667 154ZM114.4 146.533C118.533 149.333 124 152.667 126.4 153.867C128.933 155.2 130.533 156.933 130.267 157.733C122.8 175.733 114.267 197.867 111.2 207.067C108.267 216.133 106.933 218.533 105.333 218C97.6 215.067 72 198.4 72 196.267C72 192.933 104.267 141.333 106.4 141.333C106.533 141.333 110.133 143.6 114.4 146.533ZM325.733 159.067C331.2 167.333 338.4 179.2 341.867 185.467L348 196.933L338.4 203.6C329.067 210.133 317.2 216.8 313.6 217.6C312.4 217.867 309.867 212.267 306.133 201.333C302.933 192.133 297.733 178.4 294.533 170.8C289.2 157.867 288.933 156.8 291.2 155.467C292.533 154.667 297.867 151.2 303.067 147.733C309.6 143.6 313.2 142 314.133 142.8C315.067 143.467 320.267 150.8 325.733 159.067ZM148.4 163.333C156 165.867 163.333 168 164.667 168C167.333 168 167.733 165.067 159.867 204.4L154 233.6L148.667 232.8C141.867 231.733 115.733 223.067 112.933 220.933C110.933 219.467 111.2 218 115.333 205.6C119.867 192.133 133.2 158.667 134 158.667C134.267 158.667 140.667 160.8 148.4 163.333ZM290.667 170.667C296 182.933 308 216.4 308 219.2C308 222.133 268.133 235.2 266 233.067C265.333 232.4 253.467 176.133 252.8 170.933C252.8 169.733 256.4 168 262.667 166.133C268.133 164.4 274.8 162.133 277.333 160.933C279.867 159.867 282.8 158.933 283.867 159.067C284.8 159.2 287.867 164.4 290.667 170.667ZM185.333 172C190.8 172.667 198.133 173.333 201.733 173.333H208V206.667V240H201.6C194.267 240 162.667 236.4 159.6 235.2C158.133 234.667 157.6 233.333 158.133 230.933C160.533 217.333 165.867 190.8 168.133 180.933C170.4 171.2 171.333 169.333 173.2 170C174.4 170.4 179.867 171.2 185.333 172ZM252.533 186.667C257.733 210.4 261.6 232.133 260.933 234C260.133 235.733 244.667 238.133 225.067 239.467L212 240.4V207.067V173.733L224.4 172.8C231.067 172.267 239.067 171.333 242 170.8C244.933 170.267 247.733 170.133 248.267 170.533C248.667 170.933 250.667 178.267 252.533 186.667ZM48.4 177.2C50.2667 180 55.0667 185.867 59.2 190.267L66.6667 198.267L61.2 211.467C58.2667 218.8 54.4 229.733 52.6667 235.867C50.8 242 49.0667 247.467 48.5333 247.867C47.4667 248.933 38.6667 238.667 31.2 227.6L25.0667 218.667L28 208.933C32.5333 194.267 42.4 172 44.5333 172C44.8 172 46.5333 174.267 48.4 177.2ZM386.667 195.467C394.8 216.4 394.8 217.467 386.933 229.333C380.667 238.667 371.2 249.2 370.267 247.867C370.133 247.6 368.533 242.533 366.933 236.667C365.2 230.8 361.333 219.6 358.133 211.733L352.4 197.6L358.933 191.067C362.533 187.6 367.733 181.733 370.267 178.133L375.067 171.733L378.267 176.8C380 179.733 383.733 188 386.667 195.467ZM20 227.733C19.3333 231.733 18.6667 241.2 18.5333 248.533C18.4 261.733 18.4 261.867 16.4 257.333C11.6 246.267 8.13334 214.8 10 198L10.9333 188.8L16.1333 204.533C21.0667 219.2 21.3333 220.667 20 227.733ZM409.6 209.2C409.6 217.733 408.933 229.467 408.133 235.333C406.267 247.733 402.667 261.333 401.333 261.333C400.8 261.333 400.667 256.933 400.933 251.6C401.2 246.4 400.667 236.933 399.733 230.667C398 219.467 398 219.2 401.6 209.867C403.6 204.667 405.6 197.867 406.133 194.667C407.733 184.533 409.733 192.4 409.6 209.2ZM81.7333 208.533C87.7333 212.533 95.7333 217.2 99.4667 219.067L106.4 222.533L102.667 237.333C100.533 245.467 97.8667 258.267 96.5333 265.733C95.2 273.2 94 279.6 93.8667 279.867C92.8 281.2 66 264.133 56.1333 255.733L51.8667 252L54.6667 241.733C58.8 226.4 68.4 201.333 70.1333 201.333C70.5333 201.333 75.8667 204.533 81.7333 208.533ZM355.733 214.933C361.2 228.933 366.667 246.667 366.667 250.933C366.667 253.867 347.067 268.667 334.4 275.333L325.6 280L324.8 276.4C324.4 274.267 323.467 268.8 322.667 264C321.867 259.2 319.333 247.867 317.2 238.8C314.933 229.867 313.333 222.267 313.6 222C313.867 221.867 318.4 219.467 323.733 216.667C329.067 213.867 336.533 209.333 340.4 206.533C344.133 203.867 348 201.467 348.8 201.467C349.6 201.333 352.8 207.467 355.733 214.933ZM120 227.867C125.467 229.867 135.333 233.067 141.733 234.667L153.6 237.733L152.8 241.867C151.333 249.867 146.667 288.8 146.667 292.933C146.667 295.2 146.133 297.467 145.6 297.867C142.667 299.6 97.3333 283.6 97.3333 280.8C97.6 274.533 108.667 224 109.867 224C110 224 114.533 225.733 120 227.867ZM313.2 236.667C316.533 250.133 321.333 275.2 321.333 279.333C321.333 281.867 319.867 283.067 311.733 286.4C302.667 290.133 285.2 295.867 277.067 297.867C273.6 298.667 273.6 298.533 272.667 290.267C272.133 285.733 270.667 272.933 269.2 262C267.867 250.933 266.667 241.067 266.667 239.867C266.667 238.4 270.267 236.8 279.733 234.133C286.8 232.133 296.267 229.067 300.667 227.333C305.067 225.733 309.067 224.667 309.6 225.2C310 225.6 311.733 230.8 313.2 236.667ZM29.4667 231.6C31.8667 235.2 37.0667 241.467 41.0667 245.6L48.2667 253.2L46.8 261.733C46 266.4 45.3333 276.933 45.3333 285.2C45.3333 293.467 44.8 300 44.1333 299.733C42.2667 299.067 30.6667 285.067 27.3333 279.333C22 270.533 20.4 249.2 23.4667 229.6C23.8667 227.333 24.4 225.333 24.6667 225.333C24.9333 225.333 27.2 228.133 29.4667 231.6ZM396.533 231.467C397.733 241.067 397.467 260 395.867 268.667C395.067 273.2 392.8 278.8 390.667 281.867C386 288.8 376.133 300 374.8 300C374.267 300 374.133 296.267 374.4 291.733C374.8 287.067 374.267 276.667 373.333 268.4L371.733 253.333L378.133 246.267C381.733 242.4 386.8 236.133 389.333 232.267C391.867 228.533 394.4 225.333 394.8 225.333C395.333 225.333 396 228.133 396.533 231.467ZM171.467 240.667C178.667 241.733 188 242.667 192.133 242.667C196.267 242.667 201.6 243.067 203.867 243.467L208 244.267V275.067V305.733L191.733 304.933C175.467 304 152.267 300.667 150.4 298.933C148.533 297.067 155.733 238.667 157.733 238.667C158 238.667 164.133 239.6 171.467 240.667ZM263.2 242.933C264.8 252.133 269.333 289.733 269.333 294.533V299.733L260.4 301.333C246.4 303.733 230.933 305.333 221.067 305.333H212V274.8V244.133L217.733 243.467C220.8 243.067 228.8 242.4 235.333 242C242 241.467 249.733 240.667 252.667 240C261.867 238.267 262.267 238.4 263.2 242.933ZM61.7333 264.533C67.0667 268.4 76.4 274.533 82.5333 278.133L93.6 284.533L92.8 291.333C92.4 294.933 92 306 92 315.733V333.333L85.6 330.133C76.5333 325.6 56 311.6 52 307.467C48.9333 304.133 48.8 303.067 48.8 286.933C48.6667 271.2 50 257.333 51.4667 257.333C51.8667 257.333 56.4 260.533 61.7333 264.533ZM370.4 277.067C370.667 286.533 370.667 297.067 370.133 300.4C369.2 306.133 368.533 307.2 360.667 312.933C355.867 316.533 346.8 322.533 340.4 326.4L328.667 333.333L327.733 311.067C327.2 298.667 326.533 287.6 326.133 286.4C325.733 284.667 328.133 282.667 336.133 278.4C342 275.333 351.333 269.333 356.933 265.067C362.933 260.667 367.733 257.867 368.4 258.533C369.067 259.2 370 267.467 370.4 277.067ZM114 292.533C120.667 295.067 130.4 298.267 135.733 299.467L145.333 301.867L144.933 326.533L144.4 351.333L141.2 350.8C136.667 350.133 118.4 344.4 106.4 339.733C96.6667 336 96 335.6 95.2 331.067C94.1333 325.733 95.6 289.733 96.8 287.733C97.7333 286.267 98.1333 286.4 114 292.533ZM323.2 292.8C323.6 296.267 324 307.067 324 316.8V334.533L320.133 336.533C313.6 340 298.4 345.333 286.4 348.667L274.667 351.867L274.4 331.2C274.267 319.867 274.133 308.8 274.133 306.533C274 302.4 274.267 302.267 285.067 299.2C291.067 297.467 301.333 294 307.733 291.467C314.133 289.067 320 286.933 320.8 286.8C321.6 286.8 322.667 289.467 323.2 292.8ZM49.6 318.533C51.6 324.8 52.9333 330.133 52.6667 330.4C50.8 332.267 29.3333 295.867 29.3333 290.667C29.3333 289.867 33.0667 293.2 37.7333 298.133C45.0667 306 46.4 308.4 49.6 318.533ZM387.867 296.267C383.6 307.467 369.2 330.533 366.4 330.667C365.867 330.667 366.267 328.667 367.333 326.267C368.4 323.733 369.867 318.8 370.8 315.2C372.133 310.267 374.533 306.4 381.2 299.067C386 293.733 390.133 289.333 390.267 289.333C390.533 289.333 389.467 292.533 387.867 296.267ZM166.533 306C173.6 306.933 185.733 308.267 193.733 308.8L208 309.733V334.4V359.067L192.4 358.267C177.733 357.467 151.6 354 149.067 352.533C147.867 351.733 147.6 319.733 148.933 309.6C149.467 304.133 150.133 302.667 151.733 303.333C152.8 303.733 159.467 304.933 166.533 306ZM271.067 320.667C271.467 330 271.467 341.067 271.067 345.333L270.267 353.067L256.133 355.2C248.4 356.533 235.2 357.867 227.067 358.267L212 359.067V334.4V309.6L227.2 308.667C235.6 308.133 248.267 306.667 255.467 305.467C262.8 304.267 269.067 303.333 269.467 303.6C269.867 303.733 270.667 311.467 271.067 320.667ZM62.9333 320.267C68.2667 324.133 77.0667 329.6 82.4 332.4C89.0667 336 92.1333 338.4 92.5333 340.4C93.6 346 97.6 363.333 98.2667 364.933C99.4667 368 96.5333 366.8 86.1333 360C70.2667 349.733 63.8667 342.933 58.2667 331.067C53.4667 320.667 51.0667 313.333 52.4 313.333C52.8 313.333 57.6 316.533 62.9333 320.267ZM366.4 318.267C363.467 329.2 354.4 344.133 347.467 349.733C339.2 356.267 323.333 366.667 321.6 366.667C320.8 366.667 321.333 363.067 322.8 358.667C324.133 354.4 325.6 347.867 326.133 344.267L326.933 337.867L339.2 331.067C345.867 327.333 354.667 321.733 358.667 318.8C362.667 315.867 366.4 313.467 366.933 313.333C367.333 313.333 367.2 315.6 366.4 318.267ZM108 344.133C113.467 346.4 124 349.867 131.333 351.867L144.667 355.6L145.733 362.8C146.4 366.8 147.6 373.733 148.533 378.267C150.667 388.4 151.2 388.267 132.8 382.133C108.933 374 104.8 371.733 102.267 365.067C100.267 360 96.1333 343.6 96 340.933C96 339.467 97.4667 339.733 108 344.133ZM322.667 343.067C322.667 347.333 317.467 365.467 315.333 368.8C312.4 373.2 272.267 388.8 270 386.4C269.6 386 269.867 382.8 270.8 379.2C271.6 375.6 272.667 368.8 273.067 364.133L274 355.6L285.467 352.533C291.733 350.933 302.267 347.467 308.8 344.933C323.333 339.333 322.667 339.333 322.667 343.067ZM184.8 361.2C193.6 362 202.267 362.667 204.4 362.667H208V378.667V394.667H203.733C189.467 394.533 156.667 389.733 154.8 387.467C153.2 385.6 149.333 366.667 149.333 360.933V356.533L159.2 358.133C164.533 359.067 176.133 360.533 184.8 361.2ZM269.867 364.267C269.333 368.933 268 376.267 266.8 380.667L264.667 388.667L251.333 390.8C244 392.133 232.267 393.467 225.067 394L212 394.933V378.933V362.933L225.733 362C239.6 361.067 266.8 357.6 267.867 356.533C270 354.4 270.667 357.067 269.867 364.267ZM103.333 374.667C103.733 375.333 103.6 376 103.067 376C101.733 376 92 369.467 92 368.533C92 367.6 102.4 373.2 103.333 374.667ZM328 368.533C328 369.2 317.6 376 316.667 376C314.667 376 317.867 373.067 322.4 370.667C327.867 367.867 328 367.733 328 368.533ZM142.667 388.8C150.667 390.933 152.667 392 154.267 395.067C155.333 397.2 156 399.2 155.6 399.467C154.8 400.4 132.267 392.133 123.333 387.733C107.2 379.6 106.267 375.867 121.867 382C128 384.4 137.333 387.467 142.667 388.8ZM306.533 380.8C304.8 382.8 298.8 386.4 293.333 388.933C282.8 393.867 264 400.533 263.2 399.733C262.933 399.467 263.733 397.467 265.067 395.467C266.933 392.4 269.733 390.933 282 387.333C290.133 384.8 299.333 381.6 302.667 380.133C310.267 376.667 310.4 376.667 306.533 380.8ZM170.133 394.8C174.4 395.6 184.667 396.667 192.667 397.2L207.333 398V402.533V407.2L198.667 406.8C193.867 406.667 184.267 405.6 177.333 404.533C164.933 402.667 161.2 400.8 158.533 395.733C156.933 392.8 158.667 392.667 170.133 394.8ZM260 397.333C258.533 399.467 256.8 401.467 256.267 401.867C254.667 402.8 228.933 406.533 220.4 407.067L212 407.467V402.667V397.733L228.4 396.8C237.333 396.267 247.067 395.333 250 394.8C252.933 394.133 257.067 393.6 259.067 393.467L262.8 393.333L260 397.333Z" fill="white"/>
</svg>
