<svg width="654" height="655" viewBox="0 0 654 655" fill="none" xmlns="http://www.w3.org/2000/svg">
<path d="M164.133 2.46675C82.6667 15.2667 21.0667 73.8001 3.06667 155.4L0 169V327.667V486.333L3.06667 499.933C20.2667 578.067 76.2667 634.067 154.4 651.267L168 654.333H326.667H485.333L498.933 651.267C577.067 634.067 633.067 578.067 650.267 499.933L653.333 486.333V327.667V169L650.267 155.4C633.067 77.5334 577.733 21.9334 499.6 4.06675C486.667 1.13341 486.533 1.13341 331.333 0.866746C203.733 0.60008 173.867 0.866746 164.133 2.46675ZM477.6 44.4667C546.8 52.2001 602.133 107.533 609.867 176.733C611.867 194.333 611.867 461 609.867 478.6C602.133 547.8 546.8 603.133 477.6 610.867C460 612.867 193.333 612.867 175.733 610.867C106.533 603.133 51.2 547.8 43.4667 478.6C41.4667 461 41.4667 194.333 43.4667 176.733C48.2667 133.667 72.8 93.1334 108.533 69.1334C127.467 56.4667 152.8 46.8667 174 44.4667C189.067 42.7334 462.133 42.7334 477.6 44.4667Z" fill="white"/>
<path d="M498.667 129.533C480.533 137.667 478.667 162.2 495.2 173C508.133 181.533 525.067 176.6 531.467 162.333C534.667 155.533 534.667 149.133 531.467 142.333C525.467 129.267 511.333 123.8 498.667 129.533Z" fill="white"/>
<path d="M307.333 158.333C306.267 158.6 300.8 159.533 295.333 160.333C233.733 170.2 179.467 217.8 160.133 278.867C149.6 312.333 150 352.6 161.2 386.067C169.333 410.067 184.533 434.333 202.933 452.6C220 469.4 234.4 479.667 253.467 488.333C293.333 506.333 342.133 508.6 382.267 494.2C439.6 473.533 481.6 425.533 494.8 365.4C498.133 350.467 498.667 319.8 496.133 303.667C484.533 233.4 432.133 177.667 362 161.533C351.6 159.133 313.333 156.867 307.333 158.333ZM356.933 204.867C400.8 216.067 435.467 248.6 449.067 291.667C468.8 354.333 438.933 421.267 378.667 449.133C360.267 457.667 350.8 459.533 325.333 459.533C305.467 459.667 301.333 459.267 292 456.6C254.133 445.667 224.133 420.6 207.867 386.333C192.8 354.467 191.333 315.933 204 283.667C217.867 248.333 247.6 219.933 283.467 207.533C306.133 199.8 332.933 198.733 356.933 204.867Z" fill="white"/>
</svg>
